<svg xmlns="http://www.w3.org/2000/svg" xmlns:xlink="http://www.w3.org/1999/xlink" width="500" zoomAndPan="magnify" viewBox="0 0 375 374.999991" height="500" preserveAspectRatio="xMidYMid meet" version="1.0"><defs><clipPath id="de554dfea7"><path d="M 36 80 L 287 80 L 287 331 L 36 331 Z M 36 80 " clip-rule="nonzero"/></clipPath><clipPath id="e322ef36e6"><path d="M 98.15625 370.347656 L -3.300781 141.710938 L 225.339844 40.253906 L 326.796875 268.890625 Z M 98.15625 370.347656 " clip-rule="nonzero"/></clipPath><clipPath id="e7f38a37fb"><path d="M 47.429688 256.03125 C 75.445312 319.167969 149.339844 347.636719 212.476562 319.621094 C 275.613281 291.605469 304.085938 217.710938 276.066406 154.574219 C 248.050781 91.4375 174.15625 62.964844 111.019531 90.980469 C 47.882812 118.996094 19.414062 192.890625 47.429688 256.03125 Z M 47.429688 256.03125 " clip-rule="nonzero"/></clipPath><clipPath id="5576fc2c15"><path d="M 0 0 L 251 0 L 251 251 L 0 251 Z M 0 0 " clip-rule="nonzero"/></clipPath><clipPath id="dddf25e40e"><path d="M 62.15625 290.347656 L -39.300781 61.710938 L 189.339844 -39.746094 L 290.796875 188.890625 Z M 62.15625 290.347656 " clip-rule="nonzero"/></clipPath><clipPath id="abd5db7f0b"><path d="M 11.429688 176.03125 C 39.445312 239.167969 113.339844 267.636719 176.476562 239.621094 C 239.613281 211.605469 268.085938 137.710938 240.066406 74.574219 C 212.050781 11.4375 138.15625 -17.035156 75.019531 10.980469 C 11.882812 38.996094 -16.585938 112.890625 11.429688 176.03125 Z M 11.429688 176.03125 " clip-rule="nonzero"/></clipPath><clipPath id="85090196ed"><rect x="0" width="251" y="0" height="251"/></clipPath><clipPath id="de384fb922"><path d="M 88 44 L 339 44 L 339 295 L 88 295 Z M 88 44 " clip-rule="nonzero"/></clipPath><clipPath id="5cde6e5b8c"><path d="M 149.660156 334.742188 L 48.203125 106.101562 L 276.84375 4.644531 L 378.296875 233.285156 Z M 149.660156 334.742188 " clip-rule="nonzero"/></clipPath><clipPath id="d642e60e58"><path d="M 98.929688 220.421875 C 126.945312 283.558594 200.839844 312.03125 263.980469 284.011719 C 327.117188 255.996094 355.585938 182.101562 327.570312 118.964844 C 299.554688 55.828125 225.660156 27.355469 162.523438 55.375 C 99.386719 83.390625 70.914062 157.285156 98.929688 220.421875 Z M 98.929688 220.421875 " clip-rule="nonzero"/></clipPath><clipPath id="ce71e20907"><path d="M 0 0 L 251 0 L 251 251 L 0 251 Z M 0 0 " clip-rule="nonzero"/></clipPath><clipPath id="af336e31e9"><path d="M 61.660156 290.742188 L -39.796875 62.101562 L 188.84375 -39.355469 L 290.296875 189.285156 Z M 61.660156 290.742188 " clip-rule="nonzero"/></clipPath><clipPath id="09a0138411"><path d="M 10.929688 176.421875 C 38.945312 239.558594 112.839844 268.03125 175.980469 240.011719 C 239.117188 211.996094 267.585938 138.101562 239.570312 74.964844 C 211.554688 11.828125 137.660156 -16.644531 74.523438 11.375 C 11.386719 39.390625 -17.085938 113.285156 10.929688 176.421875 Z M 10.929688 176.421875 " clip-rule="nonzero"/></clipPath><clipPath id="94310cae10"><rect x="0" width="251" y="0" height="251"/></clipPath><clipPath id="1dd67a98f2"><path d="M 47 95 L 266 95 L 266 320 L 47 320 Z M 47 95 " clip-rule="nonzero"/></clipPath><clipPath id="381e237332"><path d="M 103.566406 354.777344 L 11.738281 147.835938 L 209.414062 60.121094 L 301.242188 267.058594 Z M 103.566406 354.777344 " clip-rule="nonzero"/></clipPath><clipPath id="4ec8517658"><path d="M 57.695312 251.40625 C 83.03125 308.496094 147.816406 335.140625 202.402344 310.917969 C 256.988281 286.695312 280.703125 220.777344 255.371094 163.6875 C 230.035156 106.597656 165.25 79.953125 110.664062 104.175781 C 56.078125 128.398438 32.363281 194.3125 57.695312 251.40625 Z M 57.695312 251.40625 " clip-rule="nonzero"/></clipPath><clipPath id="181802072b"><path d="M 0 0 L 219 0 L 219 225 L 0 225 Z M 0 0 " clip-rule="nonzero"/></clipPath><clipPath id="6e3ab0d18e"><path d="M 56.566406 259.777344 L -35.261719 52.835938 L 162.414062 -34.878906 L 254.242188 172.058594 Z M 56.566406 259.777344 " clip-rule="nonzero"/></clipPath><clipPath id="b1725c87d1"><path d="M 10.695312 156.40625 C 36.03125 213.496094 100.816406 240.140625 155.402344 215.917969 C 209.988281 191.695312 233.703125 125.777344 208.371094 68.6875 C 183.035156 11.597656 118.25 -15.046875 63.664062 9.175781 C 9.078125 33.398438 -14.636719 99.3125 10.695312 156.40625 Z M 10.695312 156.40625 " clip-rule="nonzero"/></clipPath><clipPath id="3afd31531c"><rect x="0" width="219" y="0" height="225"/></clipPath><clipPath id="31665eb861"><path d="M 81.117188 130.996094 L 230.855469 130.996094 L 230.855469 280.730469 L 81.117188 280.730469 Z M 81.117188 130.996094 " clip-rule="nonzero"/></clipPath><clipPath id="1efde11114"><path d="M 155.984375 130.996094 C 114.636719 130.996094 81.117188 164.515625 81.117188 205.863281 C 81.117188 247.210938 114.636719 280.730469 155.984375 280.730469 C 197.335938 280.730469 230.855469 247.210938 230.855469 205.863281 C 230.855469 164.515625 197.335938 130.996094 155.984375 130.996094 Z M 155.984375 130.996094 " clip-rule="nonzero"/></clipPath><clipPath id="c30a9d5034"><path d="M 0.117188 0.996094 L 149.855469 0.996094 L 149.855469 150.730469 L 0.117188 150.730469 Z M 0.117188 0.996094 " clip-rule="nonzero"/></clipPath><clipPath id="76c2ce7b9a"><path d="M 74.984375 0.996094 C 33.636719 0.996094 0.117188 34.515625 0.117188 75.863281 C 0.117188 117.210938 33.636719 150.730469 74.984375 150.730469 C 116.335938 150.730469 149.855469 117.210938 149.855469 75.863281 C 149.855469 34.515625 116.335938 0.996094 74.984375 0.996094 Z M 74.984375 0.996094 " clip-rule="nonzero"/></clipPath><clipPath id="0401f26264"><rect x="0" width="150" y="0" height="151"/></clipPath><clipPath id="18210e8177"><path d="M 121.964844 239.5 L 201.464844 239.5 L 201.464844 260.5 L 121.964844 260.5 Z M 121.964844 239.5 " clip-rule="nonzero"/></clipPath><clipPath id="9bd1d095c8"><path d="M 86.523438 132 L 161 132 L 161 217.246094 L 86.523438 217.246094 Z M 86.523438 132 " clip-rule="nonzero"/></clipPath><clipPath id="58404f146d"><path d="M 156 132 L 230.523438 132 L 230.523438 217.246094 L 156 217.246094 Z M 156 132 " clip-rule="nonzero"/></clipPath><clipPath id="7a7027be9c"><path d="M 86.523438 131 L 138 131 L 138 153 L 86.523438 153 Z M 86.523438 131 " clip-rule="nonzero"/></clipPath><clipPath id="b3209c221e"><path d="M 179 131 L 230.523438 131 L 230.523438 153 L 179 153 Z M 179 131 " clip-rule="nonzero"/></clipPath></defs><g clip-path="url(#de554dfea7)"><g clip-path="url(#e322ef36e6)"><g clip-path="url(#e7f38a37fb)"><g transform="matrix(1, 0, 0, 1, 36, 80)"><g clip-path="url(#85090196ed)"><g clip-path="url(#5576fc2c15)"><g clip-path="url(#dddf25e40e)"><g clip-path="url(#abd5db7f0b)"><path fill="#004aad" d="M 62.15625 290.347656 L -39.300781 61.710938 L 189.339844 -39.746094 L 290.796875 188.890625 Z M 62.15625 290.347656 " fill-opacity="1" fill-rule="nonzero"/></g></g></g></g></g></g></g></g><g clip-path="url(#de384fb922)"><g clip-path="url(#5cde6e5b8c)"><g clip-path="url(#d642e60e58)"><g transform="matrix(1, 0, 0, 1, 88, 44)"><g clip-path="url(#94310cae10)"><g clip-path="url(#ce71e20907)"><g clip-path="url(#af336e31e9)"><g clip-path="url(#09a0138411)"><path fill="#004aad" d="M 61.660156 290.742188 L -39.796875 62.101562 L 188.84375 -39.355469 L 290.296875 189.285156 Z M 61.660156 290.742188 " fill-opacity="1" fill-rule="nonzero"/></g></g></g></g></g></g></g></g><g clip-path="url(#1dd67a98f2)"><g clip-path="url(#381e237332)"><g clip-path="url(#4ec8517658)"><g transform="matrix(1, 0, 0, 1, 47, 95)"><g clip-path="url(#3afd31531c)"><g clip-path="url(#181802072b)"><g clip-path="url(#6e3ab0d18e)"><g clip-path="url(#b1725c87d1)"><path fill="#ffffff" d="M 56.566406 259.777344 L -35.261719 52.835938 L 162.414062 -34.878906 L 254.242188 172.058594 Z M 56.566406 259.777344 " fill-opacity="1" fill-rule="nonzero"/></g></g></g></g></g></g></g></g><g clip-path="url(#31665eb861)"><g clip-path="url(#1efde11114)"><g transform="matrix(1, 0, 0, 1, 81, 130)"><g clip-path="url(#0401f26264)"><g clip-path="url(#c30a9d5034)"><g clip-path="url(#76c2ce7b9a)"><path fill="#ffa500" d="M 0.117188 0.996094 L 149.855469 0.996094 L 149.855469 150.730469 L 0.117188 150.730469 Z M 0.117188 0.996094 " fill-opacity="1" fill-rule="nonzero"/></g></g></g></g></g></g><g clip-path="url(#18210e8177)"><path fill="#000000" d="M 123.238281 246.089844 C 123.265625 245.96875 123.289062 245.855469 123.320312 245.738281 L 123.417969 245.402344 C 123.472656 245.179688 123.570312 244.972656 123.636719 244.765625 C 123.816406 244.359375 124.003906 243.980469 124.230469 243.628906 C 124.464844 243.285156 124.710938 242.953125 124.996094 242.660156 C 125.566406 242.070312 126.238281 241.582031 127.03125 241.222656 L 127.179688 241.152344 L 127.335938 241.09375 C 127.4375 241.054688 127.542969 241.011719 127.652344 240.972656 C 127.867188 240.914062 128.089844 240.824219 128.320312 240.769531 C 128.554688 240.710938 128.796875 240.664062 129.046875 240.621094 C 129.050781 240.621094 129.054688 240.621094 129.054688 240.621094 C 129.355469 240.574219 129.433594 240.167969 129.167969 240.023438 C 128.917969 239.882812 128.648438 239.773438 128.371094 239.691406 C 128.09375 239.605469 127.808594 239.570312 127.515625 239.53125 C 127.371094 239.511719 127.226562 239.519531 127.078125 239.515625 L 126.855469 239.515625 C 126.78125 239.519531 126.707031 239.53125 126.632812 239.535156 C 125.441406 239.648438 124.285156 240.238281 123.4375 241.125 C 123.007812 241.570312 122.671875 242.09375 122.410156 242.652344 C 122.160156 243.214844 122.019531 243.816406 121.96875 244.417969 C 121.960938 244.566406 121.964844 244.71875 121.96875 244.867188 C 121.96875 244.941406 121.964844 245.015625 121.972656 245.089844 C 121.980469 245.164062 121.992188 245.238281 122 245.3125 C 122.023438 245.460938 122.035156 245.605469 122.066406 245.75 C 122.097656 245.890625 122.136719 246.035156 122.179688 246.171875 C 122.253906 246.394531 122.34375 246.613281 122.449219 246.820312 C 122.613281 247.136719 123.085938 247.058594 123.132812 246.703125 C 123.160156 246.492188 123.195312 246.289062 123.238281 246.089844 Z M 200.292969 246.703125 C 200.339844 247.058594 200.808594 247.136719 200.976562 246.820312 C 201.082031 246.613281 201.171875 246.394531 201.246094 246.171875 C 201.289062 246.035156 201.324219 245.890625 201.359375 245.75 C 201.390625 245.605469 201.402344 245.460938 201.425781 245.3125 C 201.433594 245.238281 201.445312 245.164062 201.453125 245.089844 C 201.457031 245.015625 201.457031 244.941406 201.457031 244.867188 C 201.457031 244.71875 201.460938 244.566406 201.457031 244.417969 C 201.40625 243.816406 201.261719 243.214844 201.011719 242.652344 C 200.753906 242.09375 200.417969 241.570312 199.988281 241.125 C 199.140625 240.238281 197.980469 239.648438 196.789062 239.535156 C 196.71875 239.53125 196.644531 239.519531 196.570312 239.515625 L 196.347656 239.515625 C 196.199219 239.519531 196.054688 239.511719 195.90625 239.53125 C 195.613281 239.570312 195.328125 239.605469 195.050781 239.691406 C 194.773438 239.773438 194.507812 239.882812 194.257812 240.023438 C 193.992188 240.167969 194.070312 240.574219 194.367188 240.621094 C 194.371094 240.621094 194.375 240.621094 194.375 240.621094 C 194.628906 240.664062 194.871094 240.710938 195.101562 240.769531 C 195.335938 240.824219 195.558594 240.914062 195.773438 240.972656 C 195.878906 241.011719 195.984375 241.054688 196.089844 241.09375 L 196.242188 241.152344 L 196.390625 241.222656 C 197.1875 241.582031 197.855469 242.070312 198.425781 242.660156 C 198.714844 242.953125 198.957031 243.285156 199.195312 243.628906 C 199.421875 243.980469 199.609375 244.359375 199.785156 244.765625 C 199.851562 244.972656 199.953125 245.179688 200.003906 245.402344 L 200.105469 245.738281 C 200.136719 245.855469 200.160156 245.96875 200.183594 246.089844 C 200.226562 246.289062 200.261719 246.492188 200.292969 246.703125 Z M 161.417969 260.492188 C 155.117188 260.492188 148.851562 259.183594 142.808594 256.601562 C 136.957031 254.105469 131.292969 250.410156 125.972656 245.621094 C 125.570312 245.257812 125.535156 244.632812 125.894531 244.222656 C 126.25 243.816406 126.867188 243.78125 127.269531 244.140625 C 137.710938 253.546875 149.519531 258.515625 161.417969 258.515625 C 173.421875 258.515625 185.320312 253.464844 195.828125 243.90625 C 196.230469 243.542969 196.84375 243.578125 197.207031 243.984375 C 197.566406 244.390625 197.53125 245.015625 197.128906 245.378906 C 191.78125 250.242188 186.078125 254 180.183594 256.539062 C 174.089844 259.164062 167.777344 260.492188 161.417969 260.492188 " fill-opacity="1" fill-rule="nonzero"/></g><path fill="#ffffff" d="M 135.488281 187.175781 C 135.488281 188.128906 135.453125 189.082031 135.378906 190.03125 C 135.300781 190.980469 135.191406 191.921875 135.042969 192.859375 C 134.894531 193.792969 134.707031 194.71875 134.488281 195.632812 C 134.265625 196.546875 134.007812 197.441406 133.71875 198.324219 C 133.425781 199.207031 133.101562 200.066406 132.742188 200.910156 C 132.382812 201.75 131.992188 202.570312 131.566406 203.363281 C 131.144531 204.15625 130.691406 204.921875 130.207031 205.660156 C 129.722656 206.394531 129.210938 207.101562 128.671875 207.777344 C 128.132812 208.453125 127.570312 209.09375 126.980469 209.699219 C 126.390625 210.304688 125.78125 210.871094 125.148438 211.402344 C 124.511719 211.929688 123.859375 212.421875 123.1875 212.871094 C 122.515625 213.320312 121.828125 213.726562 121.125 214.09375 C 120.417969 214.457031 119.703125 214.78125 118.972656 215.054688 C 118.246094 215.332031 117.503906 215.566406 116.757812 215.75 C 116.011719 215.9375 115.257812 216.078125 114.5 216.171875 C 113.742188 216.265625 112.980469 216.3125 112.21875 216.3125 C 111.457031 216.3125 110.695312 216.265625 109.9375 216.171875 C 109.179688 216.078125 108.425781 215.9375 107.679688 215.75 C 106.929688 215.566406 106.191406 215.332031 105.464844 215.054688 C 104.734375 214.78125 104.015625 214.457031 103.3125 214.09375 C 102.609375 213.726562 101.921875 213.320312 101.25 212.871094 C 100.578125 212.421875 99.921875 211.929688 99.289062 211.402344 C 98.65625 210.871094 98.042969 210.304688 97.457031 209.699219 C 96.867188 209.09375 96.300781 208.453125 95.761719 207.777344 C 95.226562 207.101562 94.714844 206.394531 94.230469 205.660156 C 93.746094 204.921875 93.292969 204.15625 92.871094 203.363281 C 92.445312 202.570312 92.054688 201.75 91.695312 200.910156 C 91.335938 200.066406 91.011719 199.207031 90.71875 198.324219 C 90.425781 197.441406 90.171875 196.546875 89.949219 195.632812 C 89.730469 194.71875 89.542969 193.792969 89.394531 192.859375 C 89.246094 191.921875 89.132812 190.980469 89.058594 190.03125 C 88.984375 189.082031 88.949219 188.128906 88.949219 187.175781 C 88.949219 186.21875 88.984375 185.269531 89.058594 184.320312 C 89.132812 183.367188 89.246094 182.425781 89.394531 181.492188 C 89.542969 180.554688 89.730469 179.628906 89.949219 178.714844 C 90.171875 177.804688 90.425781 176.90625 90.71875 176.023438 C 91.011719 175.144531 91.335938 174.28125 91.695312 173.441406 C 92.054688 172.597656 92.445312 171.78125 92.871094 170.988281 C 93.292969 170.195312 93.746094 169.429688 94.230469 168.691406 C 94.714844 167.953125 95.226562 167.246094 95.761719 166.570312 C 96.300781 165.898438 96.867188 165.257812 97.457031 164.652344 C 98.042969 164.046875 98.65625 163.480469 99.289062 162.949219 C 99.921875 162.417969 100.578125 161.929688 101.25 161.480469 C 101.921875 161.027344 102.609375 160.621094 103.3125 160.257812 C 104.015625 159.890625 104.734375 159.570312 105.464844 159.292969 C 106.191406 159.015625 106.929688 158.785156 107.679688 158.597656 C 108.425781 158.410156 109.179688 158.273438 109.9375 158.179688 C 110.695312 158.085938 111.457031 158.039062 112.21875 158.039062 C 112.980469 158.039062 113.742188 158.085938 114.5 158.179688 C 115.257812 158.273438 116.011719 158.410156 116.757812 158.597656 C 117.503906 158.785156 118.246094 159.015625 118.972656 159.292969 C 119.703125 159.570312 120.417969 159.890625 121.125 160.257812 C 121.828125 160.621094 122.515625 161.027344 123.1875 161.480469 C 123.859375 161.929688 124.511719 162.417969 125.148438 162.949219 C 125.78125 163.480469 126.390625 164.046875 126.980469 164.652344 C 127.570312 165.257812 128.132812 165.898438 128.671875 166.570312 C 129.210938 167.246094 129.722656 167.953125 130.207031 168.691406 C 130.691406 169.429688 131.144531 170.195312 131.566406 170.988281 C 131.992188 171.78125 132.382812 172.597656 132.742188 173.441406 C 133.101562 174.28125 133.425781 175.144531 133.71875 176.023438 C 134.007812 176.90625 134.265625 177.804688 134.488281 178.714844 C 134.707031 179.628906 134.894531 180.554688 135.042969 181.492188 C 135.191406 182.425781 135.300781 183.367188 135.378906 184.320312 C 135.453125 185.269531 135.488281 186.21875 135.488281 187.175781 Z M 135.488281 187.175781 " fill-opacity="1" fill-rule="nonzero"/><g clip-path="url(#9bd1d095c8)"><path stroke-linecap="butt" transform="matrix(0.295688, 0, 0, 0.297007, 86.523169, 131.188746)" fill="none" stroke-linejoin="miter" d="M 165.597293 188.50389 C 165.597293 191.712986 165.478397 194.922082 165.227393 198.118026 C 164.963179 201.313969 164.593279 204.483609 164.091271 207.640097 C 163.589264 210.783433 162.955149 213.900465 162.215349 216.97804 C 161.462338 220.055616 160.59043 223.067431 159.612837 226.039791 C 158.622033 229.01215 157.525543 231.905597 156.310157 234.746436 C 155.09477 237.574123 153.773698 240.33605 152.33373 243.005913 C 150.906972 245.675776 149.374528 248.253574 147.736399 250.739308 C 146.098269 253.21189 144.367665 255.592408 142.544585 257.86771 C 140.721506 260.143012 138.819162 262.299945 136.824343 264.33851 C 134.829524 266.377075 132.768652 268.28412 130.628515 270.072796 C 128.475168 271.848321 126.268977 273.505477 123.996733 275.01796 C 121.724489 276.530444 119.399402 277.898256 117.021473 279.134547 C 114.630332 280.357686 112.21277 281.449304 109.742366 282.369947 C 107.285171 283.303741 104.775134 284.092863 102.251887 284.711009 C 99.728639 285.342306 97.17897 285.815779 94.61609 286.131428 C 92.05321 286.447077 89.47712 286.604901 86.901029 286.604901 C 84.324939 286.604901 81.748848 286.447077 79.185968 286.131428 C 76.623088 285.815779 74.073419 285.342306 71.550172 284.711009 C 69.013713 284.092863 66.516887 283.303741 64.059693 282.369947 C 61.589288 281.449304 59.158515 280.357686 56.780586 279.134547 C 54.402656 277.898256 52.077569 276.530444 49.805325 275.01796 C 47.533081 273.505477 45.31368 271.848321 43.173543 270.072796 C 41.033406 268.28412 38.959323 266.377075 36.977715 264.33851 C 34.982896 262.299945 33.067342 260.143012 31.244262 257.86771 C 29.434393 255.592408 27.703789 253.21189 26.06566 250.739308 C 24.42753 248.253574 22.895087 245.675776 21.468329 243.005913 C 20.02836 240.33605 18.707288 237.574123 17.491902 234.746436 C 16.276515 231.905597 15.180026 229.01215 14.189222 226.039791 C 13.198417 223.067431 12.339721 220.055616 11.58671 216.97804 C 10.846909 213.900465 10.212795 210.783433 9.710787 207.640097 C 9.20878 204.483609 8.825669 201.313969 8.574665 198.118026 C 8.323661 194.922082 8.204765 191.712986 8.204765 188.50389 C 8.204765 185.281642 8.323661 182.085698 8.574665 178.889754 C 8.825669 175.680658 9.20878 172.511018 9.710787 169.367682 C 10.212795 166.211194 10.846909 163.094163 11.58671 160.016587 C 12.339721 156.952163 13.198417 153.927196 14.189222 150.954836 C 15.180026 147.995629 16.276515 145.08903 17.491902 142.261343 C 18.707288 139.420504 20.02836 136.671729 21.468329 134.001866 C 22.895087 131.332004 24.42753 128.754205 26.06566 126.268471 C 27.703789 123.782737 29.434393 121.402219 31.244262 119.126917 C 33.067342 116.864768 34.982896 114.707834 36.977715 112.669269 C 38.959323 110.630704 41.033406 108.72366 43.173543 106.934983 C 45.31368 105.146307 47.533081 103.502303 49.805325 101.989819 C 52.077569 100.464183 54.402656 99.096372 56.780586 97.873233 C 59.158515 96.636942 61.589288 95.558475 64.059693 94.624681 C 66.516887 93.690886 69.013713 92.914916 71.550172 92.283619 C 74.073419 91.652321 76.623088 91.192 79.185968 90.876351 C 81.748848 90.560702 84.324939 90.402878 86.901029 90.402878 C 89.47712 90.402878 92.05321 90.560702 94.61609 90.876351 C 97.17897 91.192 99.728639 91.652321 102.251887 92.283619 C 104.775134 92.914916 107.285171 93.690886 109.742366 94.624681 C 112.21277 95.558475 114.630332 96.636942 117.021473 97.873233 C 119.399402 99.096372 121.724489 100.464183 123.996733 101.989819 C 126.268977 103.502303 128.475168 105.146307 130.628515 106.934983 C 132.768652 108.72366 134.829524 110.630704 136.824343 112.669269 C 138.819162 114.707834 140.721506 116.864768 142.544585 119.126917 C 144.367665 121.402219 146.098269 123.782737 147.736399 126.268471 C 149.374528 128.754205 150.906972 131.332004 152.33373 134.001866 C 153.773698 136.671729 155.09477 139.420504 156.310157 142.261343 C 157.525543 145.08903 158.622033 147.995629 159.612837 150.954836 C 160.59043 153.927196 161.462338 156.952163 162.215349 160.016587 C 162.955149 163.094163 163.589264 166.211194 164.091271 169.367682 C 164.593279 172.511018 164.963179 175.680658 165.227393 178.889754 C 165.478397 182.085698 165.597293 185.281642 165.597293 188.50389 Z M 165.597293 188.50389 " stroke="#000000" stroke-width="6" stroke-opacity="1" stroke-miterlimit="10"/></g><path stroke-linecap="butt" transform="matrix(0.295688, 0, 0, 0.297007, 86.523169, 131.188746)" fill-opacity="1" fill="#000000" fill-rule="nonzero" stroke-linejoin="miter" d="M 165.002811 183.795462 C 165.002811 186.767821 164.712175 189.700725 164.130903 192.594172 C 163.549632 195.500771 162.704145 198.328458 161.568023 201.064081 C 160.431901 203.799704 159.044776 206.390654 157.393436 208.850084 C 155.755306 211.322666 153.879384 213.597968 151.79209 215.689141 C 149.691585 217.780314 147.419341 219.647903 144.962147 221.305059 C 142.491743 222.949063 139.889231 224.330027 137.154611 225.461101 C 134.419992 226.605328 131.606109 227.46021 128.69975 228.0389 C 125.793391 228.617589 122.860611 228.893782 119.90141 228.893782 C 116.942208 228.893782 114.009428 228.617589 111.10307 228.0389 C 108.196711 227.46021 105.382828 226.605328 102.634998 225.461101 C 99.900378 224.330027 97.311077 222.949063 94.840672 221.305059 C 92.383478 219.647903 90.098024 217.780314 88.01073 215.689141 C 85.910225 213.597968 84.047513 211.322666 82.396173 208.850084 C 80.758044 206.390654 79.370918 203.799704 78.234796 201.064081 C 77.098674 198.328458 76.239977 195.500771 75.671916 192.594172 C 75.090645 189.700725 74.800009 186.767821 74.800009 183.795462 C 74.800009 180.836255 75.090645 177.903351 75.671916 174.996752 C 76.239977 172.103305 77.098674 169.275618 78.234796 166.539995 C 79.370918 163.804372 80.758044 161.20027 82.396173 158.74084 C 84.047513 156.28141 85.910225 154.006108 88.01073 151.914935 C 90.098024 149.81061 92.383478 147.943021 94.840672 146.299017 C 97.311077 144.655013 99.900378 143.260897 102.634998 142.129822 C 105.382828 140.998748 108.196711 140.143866 111.10307 139.565176 C 114.009428 138.986487 116.942208 138.697142 119.90141 138.697142 C 122.860611 138.697142 125.793391 138.986487 128.69975 139.565176 C 131.606109 140.143866 134.419992 140.998748 137.154611 142.129822 C 139.889231 143.260897 142.491743 144.655013 144.962147 146.299017 C 147.419341 147.943021 149.691585 149.81061 151.79209 151.914935 C 153.879384 154.006108 155.755306 156.28141 157.393436 158.74084 C 159.044776 161.20027 160.431901 163.804372 161.568023 166.539995 C 162.704145 169.275618 163.549632 172.103305 164.130903 174.996752 C 164.712175 177.903351 165.002811 180.836255 165.002811 183.795462 Z M 165.002811 183.795462 " stroke="#000000" stroke-width="2" stroke-opacity="1" stroke-miterlimit="10"/><path stroke-linecap="butt" transform="matrix(0.295688, 0, 0, 0.297007, 86.523169, 131.188746)" fill-opacity="1" fill="#ffffff" fill-rule="nonzero" stroke-linejoin="miter" d="M 116.506255 165.606201 C 116.506255 166.671515 116.294883 167.710526 115.885351 168.696928 C 115.475818 169.696483 114.881336 170.564517 114.128325 171.327335 C 113.362103 172.090153 112.490195 172.668842 111.499391 173.089707 C 110.508587 173.49742 109.478151 173.694701 108.394872 173.694701 C 107.324804 173.694701 106.294367 173.49742 105.303563 173.089707 C 104.312759 172.668842 103.427641 172.090153 102.67463 171.327335 C 101.908408 170.564517 101.327136 169.696483 100.917604 168.696928 C 100.508072 167.710526 100.2967 166.671515 100.2967 165.606201 C 100.2967 164.527734 100.508072 163.488724 100.917604 162.502321 C 101.327136 161.502767 101.908408 160.634732 102.67463 159.871915 C 103.427641 159.109097 104.312759 158.530407 105.303563 158.122694 C 106.294367 157.701829 107.324804 157.504549 108.394872 157.504549 C 109.478151 157.504549 110.508587 157.701829 111.499391 158.122694 C 112.490195 158.530407 113.362103 159.109097 114.128325 159.871915 C 114.881336 160.634732 115.475818 161.502767 115.885351 162.502321 C 116.294883 163.488724 116.506255 164.527734 116.506255 165.606201 Z M 116.506255 165.606201 " stroke="#000000" stroke-width="2" stroke-opacity="1" stroke-miterlimit="10"/><path fill="#ffffff" d="M 228.128906 187.175781 C 228.128906 188.128906 228.089844 189.082031 228.015625 190.03125 C 227.941406 190.980469 227.828125 191.921875 227.679688 192.859375 C 227.53125 193.792969 227.347656 194.71875 227.125 195.632812 C 226.90625 196.546875 226.648438 197.441406 226.355469 198.324219 C 226.066406 199.207031 225.738281 200.066406 225.378906 200.910156 C 225.019531 201.75 224.628906 202.570312 224.207031 203.363281 C 223.78125 204.15625 223.328125 204.921875 222.847656 205.660156 C 222.363281 206.394531 221.851562 207.101562 221.3125 207.777344 C 220.773438 208.453125 220.210938 209.09375 219.621094 209.699219 C 219.03125 210.304688 218.417969 210.871094 217.785156 211.402344 C 217.152344 211.929688 216.5 212.421875 215.828125 212.871094 C 215.15625 213.320312 214.46875 213.726562 213.761719 214.09375 C 213.058594 214.457031 212.34375 214.78125 211.613281 215.054688 C 210.882812 215.332031 210.144531 215.566406 209.398438 215.75 C 208.648438 215.9375 207.898438 216.078125 207.136719 216.171875 C 206.378906 216.265625 205.621094 216.3125 204.859375 216.3125 C 204.09375 216.3125 203.335938 216.265625 202.578125 216.171875 C 201.816406 216.078125 201.066406 215.9375 200.316406 215.75 C 199.570312 215.566406 198.832031 215.332031 198.101562 215.054688 C 197.371094 214.78125 196.65625 214.457031 195.953125 214.09375 C 195.246094 213.726562 194.558594 213.320312 193.886719 212.871094 C 193.214844 212.421875 192.5625 211.929688 191.929688 211.402344 C 191.296875 210.871094 190.683594 210.304688 190.09375 209.699219 C 189.503906 209.09375 188.941406 208.453125 188.402344 207.777344 C 187.863281 207.101562 187.351562 206.394531 186.867188 205.660156 C 186.386719 204.921875 185.933594 204.15625 185.507812 203.363281 C 185.085938 202.570312 184.695312 201.75 184.335938 200.910156 C 183.976562 200.066406 183.648438 199.207031 183.359375 198.324219 C 183.066406 197.441406 182.808594 196.546875 182.589844 195.632812 C 182.367188 194.71875 182.183594 193.792969 182.035156 192.859375 C 181.886719 191.921875 181.773438 190.980469 181.699219 190.03125 C 181.625 189.082031 181.585938 188.128906 181.585938 187.175781 C 181.585938 186.21875 181.625 185.269531 181.699219 184.320312 C 181.773438 183.367188 181.886719 182.425781 182.035156 181.492188 C 182.183594 180.554688 182.367188 179.628906 182.589844 178.714844 C 182.808594 177.804688 183.066406 176.90625 183.359375 176.023438 C 183.648438 175.144531 183.976562 174.28125 184.335938 173.441406 C 184.695312 172.597656 185.085938 171.78125 185.507812 170.988281 C 185.933594 170.195312 186.386719 169.429688 186.867188 168.691406 C 187.351562 167.953125 187.863281 167.246094 188.402344 166.570312 C 188.941406 165.898438 189.503906 165.257812 190.09375 164.652344 C 190.683594 164.046875 191.296875 163.480469 191.929688 162.949219 C 192.5625 162.417969 193.214844 161.929688 193.886719 161.480469 C 194.558594 161.027344 195.246094 160.621094 195.953125 160.257812 C 196.65625 159.890625 197.371094 159.570312 198.101562 159.292969 C 198.832031 159.015625 199.570312 158.785156 200.316406 158.597656 C 201.066406 158.410156 201.816406 158.273438 202.578125 158.179688 C 203.335938 158.085938 204.09375 158.039062 204.859375 158.039062 C 205.621094 158.039062 206.378906 158.085938 207.136719 158.179688 C 207.898438 158.273438 208.648438 158.410156 209.398438 158.597656 C 210.144531 158.785156 210.882812 159.015625 211.613281 159.292969 C 212.34375 159.570312 213.058594 159.890625 213.761719 160.257812 C 214.46875 160.621094 215.15625 161.027344 215.828125 161.480469 C 216.5 161.929688 217.152344 162.417969 217.785156 162.949219 C 218.417969 163.480469 219.03125 164.046875 219.621094 164.652344 C 220.210938 165.257812 220.773438 165.898438 221.3125 166.570312 C 221.851562 167.246094 222.363281 167.953125 222.847656 168.691406 C 223.328125 169.429688 223.78125 170.195312 224.207031 170.988281 C 224.628906 171.78125 225.019531 172.597656 225.378906 173.441406 C 225.738281 174.28125 226.066406 175.144531 226.355469 176.023438 C 226.648438 176.90625 226.90625 177.804688 227.125 178.714844 C 227.347656 179.628906 227.53125 180.554688 227.679688 181.492188 C 227.828125 182.425781 227.941406 183.367188 228.015625 184.320312 C 228.089844 185.269531 228.128906 186.21875 228.128906 187.175781 Z M 228.128906 187.175781 " fill-opacity="1" fill-rule="nonzero"/><g clip-path="url(#58404f146d)"><path stroke-linecap="butt" transform="matrix(0.295688, 0, 0, 0.297007, 86.523169, 131.188746)" fill="none" stroke-linejoin="miter" d="M 478.902749 188.50389 C 478.902749 191.712986 478.770642 194.922082 478.519638 198.118026 C 478.268635 201.313969 477.885524 204.483609 477.383516 207.640097 C 476.881509 210.783433 476.260605 213.900465 475.507594 216.97804 C 474.767794 220.055616 473.895886 223.067431 472.905082 226.039791 C 471.927489 229.01215 470.817788 231.905597 469.602402 234.746436 C 468.387015 237.574123 467.065943 240.33605 465.639186 243.005913 C 464.199217 245.675776 462.666773 248.253574 461.041855 250.739308 C 459.403725 253.21189 457.673121 255.592408 455.850041 257.86771 C 454.026962 260.143012 452.124618 262.299945 450.129799 264.33851 C 448.13498 266.377075 446.060897 268.28412 443.92076 270.072796 C 441.780624 271.848321 439.574433 273.505477 437.302189 275.01796 C 435.029945 276.530444 432.704858 277.898256 430.313718 279.134547 C 427.935788 280.357686 425.518226 281.449304 423.047821 282.369947 C 420.577417 283.303741 418.08059 284.092863 415.557343 284.711009 C 413.020884 285.342306 410.484426 285.815779 407.908335 286.131428 C 405.345456 286.447077 402.782576 286.604901 400.206485 286.604901 C 397.617184 286.604901 395.054304 286.447077 392.491424 286.131428 C 389.915334 285.815779 387.378875 285.342306 384.842417 284.711009 C 382.319169 284.092863 379.822343 283.303741 377.351938 282.369947 C 374.881533 281.449304 372.463971 280.357686 370.086042 279.134547 C 367.694901 277.898256 365.369814 276.530444 363.09757 275.01796 C 360.825326 273.505477 358.619136 271.848321 356.478999 270.072796 C 354.338862 268.28412 352.264779 266.377075 350.26996 264.33851 C 348.275141 262.299945 346.372798 260.143012 344.549718 257.86771 C 342.726639 255.592408 340.996034 253.21189 339.357905 250.739308 C 337.732986 248.253574 336.200543 245.675776 334.760574 243.005913 C 333.333816 240.33605 332.012744 237.574123 330.797358 234.746436 C 329.581971 231.905597 328.472271 229.01215 327.494677 226.039791 C 326.503873 223.067431 325.631966 220.055616 324.892165 216.97804 C 324.139154 213.900465 323.518251 210.783433 323.016243 207.640097 C 322.514236 204.483609 322.131125 201.313969 321.880121 198.118026 C 321.629117 194.922082 321.49701 191.712986 321.49701 188.50389 C 321.49701 185.281642 321.629117 182.085698 321.880121 178.889754 C 322.131125 175.680658 322.514236 172.511018 323.016243 169.367682 C 323.518251 166.211194 324.139154 163.094163 324.892165 160.016587 C 325.631966 156.952163 326.503873 153.927196 327.494677 150.954836 C 328.472271 147.995629 329.581971 145.08903 330.797358 142.261343 C 332.012744 139.420504 333.333816 136.671729 334.760574 134.001866 C 336.200543 131.332004 337.732986 128.754205 339.357905 126.268471 C 340.996034 123.782737 342.726639 121.402219 344.549718 119.126917 C 346.372798 116.864768 348.275141 114.707834 350.26996 112.669269 C 352.264779 110.630704 354.338862 108.72366 356.478999 106.934983 C 358.619136 105.146307 360.825326 103.502303 363.09757 101.989819 C 365.369814 100.464183 367.694901 99.096372 370.086042 97.873233 C 372.463971 96.636942 374.881533 95.558475 377.351938 94.624681 C 379.822343 93.690886 382.319169 92.914916 384.842417 92.283619 C 387.378875 91.652321 389.915334 91.192 392.491424 90.876351 C 395.054304 90.560702 397.617184 90.402878 400.206485 90.402878 C 402.782576 90.402878 405.345456 90.560702 407.908335 90.876351 C 410.484426 91.192 413.020884 91.652321 415.557343 92.283619 C 418.08059 92.914916 420.577417 93.690886 423.047821 94.624681 C 425.518226 95.558475 427.935788 96.636942 430.313718 97.873233 C 432.704858 99.096372 435.029945 100.464183 437.302189 101.989819 C 439.574433 103.502303 441.780624 105.146307 443.92076 106.934983 C 446.060897 108.72366 448.13498 110.630704 450.129799 112.669269 C 452.124618 114.707834 454.026962 116.864768 455.850041 119.126917 C 457.673121 121.402219 459.403725 123.782737 461.041855 126.268471 C 462.666773 128.754205 464.199217 131.332004 465.639186 134.001866 C 467.065943 136.671729 468.387015 139.420504 469.602402 142.261343 C 470.817788 145.08903 471.927489 147.995629 472.905082 150.954836 C 473.895886 153.927196 474.767794 156.952163 475.507594 160.016587 C 476.260605 163.094163 476.881509 166.211194 477.383516 169.367682 C 477.885524 172.511018 478.268635 175.680658 478.519638 178.889754 C 478.770642 182.085698 478.902749 185.281642 478.902749 188.50389 Z M 478.902749 188.50389 " stroke="#000000" stroke-width="6" stroke-opacity="1" stroke-miterlimit="10"/></g><path stroke-linecap="butt" transform="matrix(0.295688, 0, 0, 0.297007, 86.523169, 131.188746)" fill-opacity="1" fill="#000000" fill-rule="nonzero" stroke-linejoin="miter" d="M 411.594127 183.795462 C 411.594127 186.767821 411.316701 189.700725 410.73543 192.594172 C 410.154158 195.500771 409.295461 198.328458 408.17255 201.064081 C 407.036428 203.799704 405.649302 206.390654 403.997962 208.850084 C 402.359833 211.322666 400.48391 213.597968 398.396616 215.689141 C 396.296112 217.780314 394.023868 219.647903 391.553463 221.305059 C 389.096269 222.949063 386.493757 224.330027 383.759138 225.461101 C 381.024518 226.605328 378.197424 227.46021 375.304276 228.0389 C 372.397918 228.617589 369.465138 228.893782 366.505936 228.893782 C 363.533524 228.893782 360.600744 228.617589 357.707596 228.0389 C 354.801238 227.46021 351.974143 226.605328 349.239524 225.461101 C 346.504905 224.330027 343.902393 222.949063 341.445199 221.305059 C 338.988005 219.647903 336.70255 217.780314 334.615256 215.689141 C 332.514751 213.597968 330.65204 211.322666 329.0007 208.850084 C 327.34936 206.390654 325.962234 203.799704 324.839323 201.064081 C 323.703201 198.328458 322.844504 195.500771 322.263232 192.594172 C 321.695171 189.700725 321.404535 186.767821 321.404535 183.795462 C 321.404535 180.836255 321.695171 177.903351 322.263232 174.996752 C 322.844504 172.103305 323.703201 169.275618 324.839323 166.539995 C 325.962234 163.804372 327.34936 161.20027 329.0007 158.74084 C 330.65204 156.28141 332.514751 154.006108 334.615256 151.914935 C 336.70255 149.81061 338.988005 147.943021 341.445199 146.299017 C 343.902393 144.655013 346.504905 143.260897 349.239524 142.129822 C 351.974143 140.998748 354.801238 140.143866 357.707596 139.565176 C 360.600744 138.986487 363.533524 138.697142 366.505936 138.697142 C 369.465138 138.697142 372.397918 138.986487 375.304276 139.565176 C 378.197424 140.143866 381.024518 140.998748 383.759138 142.129822 C 386.493757 143.260897 389.096269 144.655013 391.553463 146.299017 C 394.023868 147.943021 396.296112 149.81061 398.396616 151.914935 C 400.48391 154.006108 402.359833 156.28141 403.997962 158.74084 C 405.649302 161.20027 407.036428 163.804372 408.17255 166.539995 C 409.295461 169.275618 410.154158 172.103305 410.73543 174.996752 C 411.316701 177.903351 411.594127 180.836255 411.594127 183.795462 Z M 411.594127 183.795462 " stroke="#000000" stroke-width="2" stroke-opacity="1" stroke-miterlimit="10"/><path stroke-linecap="butt" transform="matrix(0.295688, 0, 0, 0.297007, 86.523169, 131.188746)" fill-opacity="1" fill="#ffffff" fill-rule="nonzero" stroke-linejoin="miter" d="M 363.09757 165.606201 C 363.09757 166.671515 362.899409 167.710526 362.489877 168.696928 C 362.067134 169.696483 361.485862 170.564517 360.732851 171.327335 C 359.966629 172.090153 359.094722 172.668842 358.103918 173.089707 C 357.113114 173.49742 356.069467 173.694701 354.999398 173.694701 C 353.92933 173.694701 352.898894 173.49742 351.894879 173.089707 C 350.904075 172.668842 350.032167 172.090153 349.265945 171.327335 C 348.512934 170.564517 347.931663 169.696483 347.52213 168.696928 C 347.099387 167.710526 346.901226 166.671515 346.901226 165.606201 C 346.901226 164.527734 347.099387 163.488724 347.52213 162.502321 C 347.931663 161.502767 348.512934 160.634732 349.265945 159.871915 C 350.032167 159.109097 350.904075 158.530407 351.894879 158.122694 C 352.898894 157.701829 353.92933 157.504549 354.999398 157.504549 C 356.069467 157.504549 357.113114 157.701829 358.103918 158.122694 C 359.094722 158.530407 359.966629 159.109097 360.732851 159.871915 C 361.485862 160.634732 362.067134 161.502767 362.489877 162.502321 C 362.899409 163.488724 363.09757 164.527734 363.09757 165.606201 Z M 363.09757 165.606201 " stroke="#000000" stroke-width="2" stroke-opacity="1" stroke-miterlimit="10"/><g clip-path="url(#7a7027be9c)"><path fill="#000000" d="M 86.523438 152.839844 C 86.847656 151.535156 87.351562 150.316406 87.914062 149.128906 C 88.476562 147.941406 89.125 146.8125 89.835938 145.683594 C 91.285156 143.484375 93 141.464844 94.949219 139.625 C 96.902344 137.78125 99.089844 136.179688 101.515625 134.84375 C 102.136719 134.515625 102.726562 134.1875 103.347656 133.890625 C 103.96875 133.59375 104.621094 133.355469 105.269531 133.058594 C 105.921875 132.824219 106.601562 132.613281 107.25 132.375 C 107.574219 132.257812 107.929688 132.199219 108.257812 132.109375 L 109.292969 131.902344 C 112.042969 131.277344 114.910156 131.070312 117.71875 131.277344 C 120.527344 131.515625 123.277344 132.226562 125.820312 133.269531 C 127.0625 133.863281 128.332031 134.394531 129.457031 135.167969 C 129.753906 135.347656 130.019531 135.523438 130.316406 135.703125 C 130.582031 135.882812 130.875 136.058594 131.140625 136.265625 C 131.675781 136.683594 132.207031 137.097656 132.710938 137.515625 L 133.476562 138.140625 C 133.714844 138.375 133.953125 138.613281 134.1875 138.851562 C 134.660156 139.328125 135.105469 139.800781 135.546875 140.277344 C 135.785156 140.515625 135.992188 140.753906 136.167969 141.019531 L 136.761719 141.820312 C 137.144531 142.355469 137.53125 142.890625 137.882812 143.457031 C 137.234375 143.308594 136.613281 143.128906 135.992188 142.980469 L 135.074219 142.710938 C 134.78125 142.625 134.484375 142.535156 134.160156 142.445312 C 133.539062 142.296875 132.945312 142.117188 132.355469 141.96875 C 132.058594 141.882812 131.761719 141.792969 131.496094 141.734375 L 130.609375 141.523438 C 130.019531 141.40625 129.457031 141.257812 128.894531 141.109375 C 128.332031 140.988281 127.742188 140.902344 127.179688 140.78125 C 126.914062 140.722656 126.617188 140.664062 126.351562 140.605469 C 126.085938 140.542969 125.789062 140.515625 125.523438 140.484375 C 124.960938 140.394531 124.429688 140.335938 123.867188 140.246094 C 121.679688 140.039062 119.550781 139.921875 117.453125 140.011719 C 115.351562 140.128906 113.3125 140.425781 111.273438 140.871094 C 110.769531 140.988281 110.238281 141.109375 109.734375 141.257812 C 109.230469 141.40625 108.730469 141.554688 108.195312 141.703125 C 107.695312 141.882812 107.191406 142.058594 106.6875 142.207031 C 106.1875 142.386719 105.683594 142.59375 105.179688 142.773438 C 103.171875 143.574219 101.128906 144.496094 99.089844 145.535156 C 97.050781 146.574219 95.007812 147.730469 92.910156 148.949219 C 91.875 149.574219 90.8125 150.195312 89.746094 150.851562 Z M 86.523438 152.839844 " fill-opacity="1" fill-rule="nonzero"/></g><g clip-path="url(#b3209c221e)"><path fill="#000000" d="M 230.523438 152.839844 L 227.242188 150.820312 C 226.175781 150.167969 225.113281 149.542969 224.078125 148.921875 C 222.007812 147.703125 219.9375 146.542969 217.898438 145.503906 C 215.855469 144.464844 213.847656 143.542969 211.804688 142.742188 C 211.304688 142.5625 210.800781 142.355469 210.296875 142.179688 C 209.796875 142.03125 209.292969 141.851562 208.789062 141.671875 C 208.289062 141.523438 207.785156 141.375 207.253906 141.226562 C 206.75 141.078125 206.246094 140.988281 205.714844 140.839844 C 203.675781 140.394531 201.632812 140.097656 199.535156 139.980469 C 197.4375 139.890625 195.335938 140.011719 193.117188 140.21875 C 192.585938 140.308594 192.023438 140.394531 191.460938 140.457031 C 191.195312 140.484375 190.902344 140.515625 190.636719 140.574219 C 190.367188 140.632812 190.074219 140.691406 189.808594 140.753906 C 189.246094 140.871094 188.683594 140.960938 188.09375 141.078125 C 187.53125 141.226562 186.96875 141.347656 186.378906 141.496094 L 185.488281 141.703125 C 185.195312 141.792969 184.929688 141.882812 184.632812 141.941406 C 184.042969 142.089844 183.449219 142.265625 182.828125 142.414062 C 182.503906 142.476562 182.238281 142.59375 181.910156 142.683594 L 180.996094 142.949219 C 180.375 143.128906 179.753906 143.308594 179.101562 143.425781 C 179.457031 142.859375 179.84375 142.328125 180.226562 141.792969 L 180.816406 140.988281 C 181.023438 140.722656 181.230469 140.457031 181.4375 140.246094 C 181.882812 139.773438 182.355469 139.296875 182.800781 138.820312 C 183.035156 138.585938 183.273438 138.347656 183.507812 138.109375 L 184.277344 137.484375 C 184.78125 137.070312 185.3125 136.652344 185.84375 136.238281 C 186.109375 136.03125 186.40625 135.851562 186.671875 135.671875 C 186.96875 135.496094 187.234375 135.316406 187.53125 135.140625 C 188.652344 134.367188 189.925781 133.832031 191.167969 133.238281 C 193.710938 132.199219 196.460938 131.515625 199.269531 131.25 C 202.078125 131.039062 204.945312 131.25 207.695312 131.871094 L 208.730469 132.140625 C 209.054688 132.226562 209.410156 132.289062 209.734375 132.40625 C 210.386719 132.644531 211.066406 132.851562 211.71875 133.089844 C 212.367188 133.355469 212.988281 133.625 213.640625 133.921875 C 214.261719 134.21875 214.882812 134.546875 215.472656 134.871094 C 217.867188 136.207031 220.085938 137.8125 222.035156 139.652344 C 223.988281 141.464844 225.703125 143.515625 227.152344 145.710938 C 227.863281 146.8125 228.511719 147.96875 229.074219 149.15625 C 229.695312 150.316406 230.199219 151.535156 230.523438 152.839844 Z M 230.523438 152.839844 " fill-opacity="1" fill-rule="nonzero"/></g></svg>